<?xml version="1.0" encoding="UTF-8" standalone="no"?>
<!-- Created with Inkscape (http://www.inkscape.org/) -->

<svg
   version="1.1"
   id="svg132"
   width="540"
   height="960"
   viewBox="0 0 540 960"
   sodipodi:docname="m_crown_fill.svg"
   inkscape:version="1.2.1 (9c6d41e410, 2022-07-14)"
   xml:space="preserve"
   xmlns:inkscape="http://www.inkscape.org/namespaces/inkscape"
   xmlns:sodipodi="http://sodipodi.sourceforge.net/DTD/sodipodi-0.dtd"
   xmlns="http://www.w3.org/2000/svg"
   xmlns:svg="http://www.w3.org/2000/svg"><defs
     id="defs136"><inkscape:path-effect
       effect="mirror_symmetry"
       start_point="278.83913,352.7269"
       end_point="278.83913,622.44119"
       center_point="278.83913,487.58405"
       id="path-effect1314"
       is_visible="true"
       lpeversion="1.2"
       lpesatellites=""
       mode="free"
       discard_orig_path="false"
       fuse_paths="false"
       oposite_fuse="false"
       split_items="false"
       split_open="false"
       link_styles="false" /><inkscape:path-effect
       effect="mirror_symmetry"
       start_point="245.00125,278.66045"
       end_point="245.00027,300.07674"
       center_point="245.00076,289.3686"
       id="path-effect1214"
       is_visible="true"
       lpeversion="1.2"
       lpesatellites=""
       mode="free"
       discard_orig_path="false"
       fuse_paths="false"
       oposite_fuse="false"
       split_items="false"
       split_open="false"
       link_styles="false" /><inkscape:path-effect
       effect="mirror_symmetry"
       start_point="280.85741,280.7257"
       end_point="280.85741,301.99913"
       center_point="280.85741,291.36241"
       id="path-effect1208"
       is_visible="true"
       lpeversion="1.2"
       lpesatellites=""
       mode="free"
       discard_orig_path="false"
       fuse_paths="false"
       oposite_fuse="false"
       split_items="false"
       split_open="false"
       link_styles="false" /><inkscape:path-effect
       effect="mirror_symmetry"
       start_point="288.54004,298.34526"
       end_point="288.54004,326.91168"
       center_point="288.54004,312.62847"
       id="path-effect1198"
       is_visible="true"
       lpeversion="1.2"
       lpesatellites=""
       mode="free"
       discard_orig_path="false"
       fuse_paths="true"
       oposite_fuse="true"
       split_items="false"
       split_open="false"
       link_styles="false" /><inkscape:path-effect
       effect="mirror_symmetry"
       start_point="357.88381,299.15339"
       end_point="357.88381,327.7198"
       center_point="357.88381,313.43659"
       id="path-effect1196"
       is_visible="true"
       lpeversion="1.2"
       lpesatellites=""
       mode="free"
       discard_orig_path="false"
       fuse_paths="false"
       oposite_fuse="false"
       split_items="false"
       split_open="false"
       link_styles="false" /><inkscape:path-effect
       effect="mirror_symmetry"
       start_point="214.89992,318.19806"
       end_point="262.7269,340.21939"
       center_point="262.7269,318.19806"
       id="path-effect1192"
       is_visible="true"
       lpeversion="1.2"
       lpesatellites=""
       mode="X"
       discard_orig_path="false"
       fuse_paths="true"
       oposite_fuse="false"
       split_items="false"
       split_open="false"
       link_styles="false" /></defs><sodipodi:namedview
     id="namedview134"
     pagecolor="#ffffff"
     bordercolor="#000000"
     borderopacity="0.25"
     inkscape:showpageshadow="2"
     inkscape:pageopacity="0.0"
     inkscape:pagecheckerboard="true"
     inkscape:deskcolor="#d1d1d1"
     showgrid="false"
     inkscape:zoom="0.875"
     inkscape:cx="390.28571"
     inkscape:cy="467.42857"
     inkscape:window-width="1920"
     inkscape:window-height="1017"
     inkscape:window-x="-8"
     inkscape:window-y="-8"
     inkscape:window-maximized="1"
     inkscape:current-layer="g138"
     showborder="true" /><g
     inkscape:groupmode="layer"
     inkscape:label="Image"
     id="g138"><g
       id="g299"
       transform="matrix(1.1667546,0,0,1.1667546,-55.336526,-322.53928)"><path
         id="path973"
         style="opacity:1;fill:#ffffff;stroke:none;stroke-width:2;stroke-dasharray:none"
         d="m 276.67578,276.44141 c -5.42928,0.0802 -10.66795,0.44276 -15.61133,1.0625 -3.2194,0.36228 -6.46036,0.81922 -9.67578,1.33593 v 24.67383 c -1.50152,0.2528 -2.97588,0.52304 -4.42773,0.80469 v -24.71484 c -9.35102,1.70674 -18.23303,3.96918 -25.28516,6.5039 v 28.00586 l 12.8711,19.3086 v 0.14257 c 0.29285,0.29508 3.92482,4.10928 6.97265,11.58594 7.95597,-3.65462 21.87332,-5.99815 37.31836,-6.00195 15.36759,7.6e-4 29.23307,2.31631 37.2168,5.9375 3.16907,-7.74287 7.07617,-11.66602 7.07617,-11.66602 l 12.85156,-19.30664 c 0,0 0.1211,-18.71492 0.1211,-27.9707 -7.04213,-2.53978 -15.92793,-4.80876 -25.28516,-6.52149 v 24.7168 c -1.45219,-0.28264 -2.92727,-0.55283 -4.42969,-0.80664 v -24.67578 c -3.24856,-0.52366 -6.5241,-0.98547 -9.77734,-1.35156 -4.91192,-0.61579 -10.11562,-0.97714 -15.50781,-1.06055 v 24.58203 c -0.75321,-0.0126 -1.5027,-0.0312 -2.26563,-0.0312 -0.72806,10e-6 -1.44288,0.0178 -2.16211,0.0293 z m 2.16211,70.88476 a 44.292377,12.94531 0 0 0 -34.9707,5.0586 c 1.22497,5.07493 1.90447,11.17314 1.42383,18.29687 a 44.292377,12.94531 0 0 1 33.54687,-4.55273 44.292377,12.94531 0 0 1 33.41602,4.49218 c -0.47535,-7.13867 0.21247,-13.24826 1.44726,-18.32617 a 44.292377,12.94531 0 0 0 -34.86328,-4.96875 z m 0,26.98242 c -14.03004,1.3e-4 -26.51388,1.91161 -34.62891,4.88672 -1.49856,8.15078 -4.48195,17.38713 -9.6621,27.73047 v 0.26953 c 13.43728,2.3914 28.49829,3.70658 44.29492,3.71875 15.7943,-0.0125 30.85324,-1.32956 44.28906,-3.7207 -5.27532,-10.47545 -8.29433,-19.81596 -9.80274,-28.05078 -8.11897,-2.94495 -20.54274,-4.83404 -34.49023,-4.83399 z" /><path
         style="opacity:1;fill:#ffffff;stroke:none;stroke-width:2;stroke-linecap:butt;stroke-dasharray:none;paint-order:fill markers stroke"
         d="m 175.36523,384.29883 c -1.862,40.15651 -8.26766,80.28741 -19.36523,119.1289 -9.47596,33.16586 -70.040927,154.50225 -108.572266,85.71485 10.443474,33.68936 38.912817,43.51106 63.999996,40.57226 62.61052,-7.33441 121.14905,-113.44774 132,-135.42968 11.39418,21.34389 35.41211,50.73828 35.41211,50.73828 0,0 23.01598,-23.96582 35.41016,-50.73828 24.70355,57.6416 69.38948,128.09527 132,135.42968 25.08718,2.9388 53.55653,-6.8829 64,-40.57226 -38.53134,68.7874 -99.09631,-52.54899 -108.57227,-85.71485 -11.09757,-38.84149 -17.50322,-78.97239 -19.36523,-119.1289 -10.9766,20.51715 -53.90516,32.80538 -103.47461,32.84319 -49.56872,-0.0382 -92.49623,-12.32634 -103.47266,-32.84319 z"
         id="path358"
         sodipodi:nodetypes="cscscccscsccc" /></g></g></svg>
