<svg width="540" height="960" xmlns="http://www.w3.org/2000/svg" xmlns:undefined="http://sodipodi.sourceforge.net/DTD/sodipodi-0.dtd" xmlns:undefined="http://www.inkscape.org/namespaces/inkscape" version="1.1">

 <g>
  <title>Layer 1</title>
  <g id="g138"  >
   <path stroke-width="2" stroke="#000000" fill="none"  id="path917" d="m381.67826,360c0,48.20908 6.66332,96.7502 20,143.42857c9.47597,33.16589 70.04005,154.50176 108.57143,85.71429c-10.44348,33.6894 -38.91279,43.51023 -64,40.57143c-62.61058,-7.33442 -107.29643,-77.78692 -132,-135.42858c-12.39419,26.77249 -35.41056,50.73826 -35.41056,50.73826c0,0 -24.01637,-29.39434 -35.41056,-50.73826c-10.85097,21.98197 -69.38942,128.09416 -132,135.42858c-25.08721,2.9388 -53.55651,-6.88203 -64,-40.57143c38.53138,68.78747 99.09546,-52.5484 108.57143,-85.71429c13.33668,-46.67837 20,-95.21949 20,-143.42857c0,0 29.60722,58.71715 102.83913,58.71715c81.20016,0 102.83913,-58.71715 102.83913,-58.71715z"/>
   <path stroke-width="2" stroke="#000000" fill="none" d="m278.83815,374.30822a44.29238,12.94531 0 0 0 -44.29101,12.94531l0,12.67383a44.29238,11.98566 0 0 0 44.29101,11.98633a44.29238,11.98566 0 0 0 44.29297,-11.98633l0,-12.67383a44.29238,12.94531 0 0 0 -44.29297,-12.94531z" id="path973"/>
   <path stroke-width="2" stroke="#000000" fill="none" d="m278.83815,346.63055a44.29238,12.94531 0 0 0 -44.29101,12.94532l0,12.67382a44.29238,11.98566 0 0 0 1.39453,2.94727a44.29238,12.94531 0 0 1 42.89648,-9.76367a44.29238,12.94531 0 0 1 42.92578,9.76367a44.29238,11.98566 0 0 0 1.36719,-2.94727l0,-12.67382a44.29238,12.94531 0 0 0 -44.29297,-12.94532z" id="path1032"/>
   <path stroke-width="2" stroke="#000000" fill="none"  d="m272.30311,278.35014c-8.584,0.00001 -17.0503,0.41964 -24.86034,1.14536l0,16.18989c-1.34914,0.16601 -2.67329,0.33599 -3.96176,0.52079c0.00074,-7.38692 0.002,-16.49179 0.002,-16.49179c0,0 -18.52372,3.18218 -26.44538,7.22696c-1.49895,12.12197 0.42393,20.512 3.21975,31.61743c2.85689,5.25773 7.00541,10.51607 10.62321,15.86156l0,12.24429c0.0123,0.96057 0.52195,1.91705 1.51713,2.84739c5.41539,-5.54391 24.62933,-9.42792 46.66326,-9.43278c22.04566,0.00097 41.27645,3.88593 46.69473,9.43278c0.98512,-0.93064 1.48474,-1.88711 1.48731,-2.84739l0,-12.24429l10.06505,-14.27654c0.3365,-0.45229 0.43875,-1.11802 0.55816,-1.58502c4.05362,-10.76232 3.22141,-19.94517 3.22141,-31.60989c-7.92134,-4.04559 -26.44538,-7.23073 -26.44538,-7.23073c0,0 -0.00023,9.10337 0,16.48802c-1.28823,-0.18476 -2.6129,-0.3567 -3.96176,-0.52269l0,-16.18799c-7.81004,-0.72572 -16.27635,-1.14535 -24.86035,-1.14536c-0.55872,0 -1.11178,0.0155 -1.6695,0.0188l0,15.49549c-1.69057,-0.0315 -3.38527,-0.0566 -5.08801,-0.0566c-1.70331,0 -3.39855,0.025 -5.08967,0.0566l0,-15.49545c-0.55773,-0.004 -1.11078,-0.0188 -1.6695,-0.0188l-0.00036,-0.00004z" id="path1037"/>
  </g>
 </g>
</svg>