<?xml version="1.0" encoding="UTF-8" standalone="no"?>
<!-- Created with Inkscape (http://www.inkscape.org/) -->

<svg
   version="1.1"
   id="svg132"
   width="540"
   height="960"
   viewBox="0 0 540 960"
   sodipodi:docname="m_crown_outline.svg"
   inkscape:version="1.2.1 (9c6d41e410, 2022-07-14)"
   xmlns:inkscape="http://www.inkscape.org/namespaces/inkscape"
   xmlns:sodipodi="http://sodipodi.sourceforge.net/DTD/sodipodi-0.dtd"
   xmlns="http://www.w3.org/2000/svg"
   xmlns:svg="http://www.w3.org/2000/svg">
  <defs
     id="defs136">
    <inkscape:path-effect
       effect="mirror_symmetry"
       start_point="278.83913,352.7269"
       end_point="278.83913,622.44119"
       center_point="278.83913,487.58405"
       id="path-effect1314"
       is_visible="true"
       lpeversion="1.2"
       lpesatellites=""
       mode="free"
       discard_orig_path="false"
       fuse_paths="false"
       oposite_fuse="false"
       split_items="false"
       split_open="false"
       link_styles="false" />
    <inkscape:path-effect
       effect="mirror_symmetry"
       start_point="245.00125,278.66045"
       end_point="245.00027,300.07674"
       center_point="245.00076,289.3686"
       id="path-effect1214"
       is_visible="true"
       lpeversion="1.2"
       lpesatellites=""
       mode="free"
       discard_orig_path="false"
       fuse_paths="false"
       oposite_fuse="false"
       split_items="false"
       split_open="false"
       link_styles="false" />
    <inkscape:path-effect
       effect="mirror_symmetry"
       start_point="280.85741,280.7257"
       end_point="280.85741,301.99913"
       center_point="280.85741,291.36241"
       id="path-effect1208"
       is_visible="true"
       lpeversion="1.2"
       lpesatellites=""
       mode="free"
       discard_orig_path="false"
       fuse_paths="false"
       oposite_fuse="false"
       split_items="false"
       split_open="false"
       link_styles="false" />
    <inkscape:path-effect
       effect="mirror_symmetry"
       start_point="288.54004,298.34526"
       end_point="288.54004,326.91168"
       center_point="288.54004,312.62847"
       id="path-effect1198"
       is_visible="true"
       lpeversion="1.2"
       lpesatellites=""
       mode="free"
       discard_orig_path="false"
       fuse_paths="true"
       oposite_fuse="true"
       split_items="false"
       split_open="false"
       link_styles="false" />
    <inkscape:path-effect
       effect="mirror_symmetry"
       start_point="357.88381,299.15339"
       end_point="357.88381,327.7198"
       center_point="357.88381,313.43659"
       id="path-effect1196"
       is_visible="true"
       lpeversion="1.2"
       lpesatellites=""
       mode="free"
       discard_orig_path="false"
       fuse_paths="false"
       oposite_fuse="false"
       split_items="false"
       split_open="false"
       link_styles="false" />
    <inkscape:path-effect
       effect="mirror_symmetry"
       start_point="214.89992,318.19806"
       end_point="262.7269,340.21939"
       center_point="262.7269,318.19806"
       id="path-effect1192"
       is_visible="true"
       lpeversion="1.2"
       lpesatellites=""
       mode="X"
       discard_orig_path="false"
       fuse_paths="true"
       oposite_fuse="false"
       split_items="false"
       split_open="false"
       link_styles="false" />
  </defs>
  <sodipodi:namedview
     id="namedview134"
     pagecolor="#ffffff"
     bordercolor="#000000"
     borderopacity="0.25"
     inkscape:showpageshadow="2"
     inkscape:pageopacity="0.0"
     inkscape:pagecheckerboard="0"
     inkscape:deskcolor="#d1d1d1"
     showgrid="false"
     inkscape:zoom="1.75"
     inkscape:cx="186"
     inkscape:cy="470.28571"
     inkscape:window-width="1920"
     inkscape:window-height="1017"
     inkscape:window-x="-8"
     inkscape:window-y="-8"
     inkscape:window-maximized="1"
     inkscape:current-layer="g138" />
  <g
     inkscape:groupmode="layer"
     inkscape:label="Image"
     id="g138">
    <path
       style="opacity:1;fill:none;stroke:#000000;stroke-width:2;stroke-linecap:butt;stroke-dasharray:none;paint-order:fill markers stroke"
       d="m 381.67826,360 c 0,48.20908 6.66332,96.7502 20,143.42857 9.47597,33.16589 70.04005,154.50176 108.57143,85.71429 -10.44348,33.6894 -38.91279,43.51023 -64,40.57143 -62.61058,-7.33442 -107.29643,-77.78692 -132,-135.42858 -12.39419,26.77249 -35.41056,50.73826 -35.41056,50.73826 0,0 -24.01637,-29.39434 -35.41056,-50.73826 -10.85097,21.98197 -69.38942,128.09416 -132,135.42858 -25.087208,2.9388 -53.556515,-6.88203 -63.999999,-40.57143 C 85.959948,657.93033 146.52403,536.59446 156,503.42857 169.33668,456.7502 176,408.20908 176,360 c 0,0 29.60722,58.71715 102.83913,58.71715 C 360.03929,418.71715 381.67826,360 381.67826,360 Z"
       id="path917"
       sodipodi:nodetypes="cscacccacscsc" />
    <path
       id="path973"
       style="opacity:1;fill:none;stroke:#000000;stroke-width:2;stroke-dasharray:none"
       d="m 278.83815,374.30822 a 44.292377,12.94531 0 0 0 -44.29101,12.94531 v 12.67383 a 44.292377,11.985664 0 0 0 44.29101,11.98633 44.292377,11.985664 0 0 0 44.29297,-11.98633 v -12.67383 a 44.292377,12.94531 0 0 0 -44.29297,-12.94531 z" />
    <path
       id="path1032"
       style="opacity:1;fill:none;stroke:#000000;stroke-width:2;stroke-dasharray:none"
       d="m 278.83815,346.63055 a 44.292377,12.94531 0 0 0 -44.29101,12.94532 v 12.67382 a 44.292377,11.985664 0 0 0 1.39453,2.94727 44.292377,12.94531 0 0 1 42.89648,-9.76367 44.292377,12.94531 0 0 1 42.92578,9.76367 44.292377,11.985664 0 0 0 1.36719,-2.94727 v -12.67382 a 44.292377,12.94531 0 0 0 -44.29297,-12.94532 z" />
    <path
       id="path1037"
       style="opacity:1;fill:none;stroke:#000000;stroke-width:2;stroke-dasharray:none"
       d="m 272.30311,278.35014 c -8.584,10e-6 -17.0503,0.41964 -24.86034,1.14536 v 16.18989 c -1.34914,0.16601 -2.67329,0.33599 -3.96176,0.52079 7.4e-4,-7.38692 0.002,-16.49179 0.002,-16.49179 0,0 -18.52372,3.18218 -26.44538,7.22696 -1.49895,12.12197 0.42393,20.512 3.21975,31.61743 2.85689,5.25773 7.00541,10.51607 10.62321,15.86156 v 12.24429 c 0.0123,0.96057 0.52195,1.91705 1.51713,2.84739 5.41539,-5.54391 24.62933,-9.42792 46.66326,-9.43278 22.04566,9.7e-4 41.27645,3.88593 46.69473,9.43278 0.98512,-0.93064 1.48474,-1.88711 1.48731,-2.84739 v -12.24429 l 10.06505,-14.27654 c 0.3365,-0.45229 0.43875,-1.11802 0.55816,-1.58502 4.05362,-10.76232 3.22141,-19.94517 3.22141,-31.60989 -7.92134,-4.04559 -26.44538,-7.23073 -26.44538,-7.23073 0,0 -2.3e-4,9.10337 0,16.48802 -1.28823,-0.18476 -2.6129,-0.3567 -3.96176,-0.52269 V 279.4955 c -7.81004,-0.72572 -16.27635,-1.14535 -24.86035,-1.14536 -0.55872,0 -1.11178,0.0155 -1.6695,0.0188 v 15.49549 c -1.69057,-0.0315 -3.38527,-0.0566 -5.08801,-0.0566 -1.70331,0 -3.39855,0.025 -5.08967,0.0566 v -15.49545 c -0.55773,-0.004 -1.11078,-0.0188 -1.6695,-0.0188 z"
       sodipodi:nodetypes="sccccccccccccccccccccsccsccs" />
  </g>
</svg>
